<?xml version="1.0" encoding="UTF-8"?>
<svg xmlns="http://www.w3.org/2000/svg" xmlns:xlink="http://www.w3.org/1999/xlink" width="1920px" height="1080px" viewBox="0 0 1920 1080" version="1.1">
<g id="surface1">
<path style=" stroke:none;fill-rule:nonzero;fill:rgb(0%,0%,0%);fill-opacity:1;" d="M 1409.519531 755.398438 C 1414.773438 728.398438 1420.730469 702.601562 1427.035156 677.398438 C 1433.34375 702.601562 1439.300781 728.398438 1444.554688 755.398438 Z M 1466.277344 763.199219 C 1464.175781 752.398438 1461.722656 741 1459.269531 730.199219 C 1456.816406 718.800781 1454.363281 708.601562 1451.914062 698.398438 C 1449.460938 688.199219 1447.007812 678.601562 1444.554688 670.199219 C 1442.101562 661.199219 1440 654 1437.898438 647.398438 L 1415.472656 647.398438 C 1413.371094 653.398438 1411.269531 661.199219 1408.816406 670.199219 C 1406.363281 679.199219 1403.914062 688.199219 1401.460938 698.398438 C 1399.007812 708.601562 1396.554688 719.398438 1394.101562 730.199219 C 1391.648438 741 1389.546875 752.398438 1387.09375 763.199219 C 1384.992188 774 1382.890625 784.800781 1381.140625 794.398438 C 1379.386719 804.601562 1377.636719 813.601562 1376.582031 821.398438 L 1396.90625 821.398438 C 1397.957031 814.199219 1399.007812 807.601562 1400.410156 800.398438 C 1401.460938 793.800781 1402.859375 787.199219 1403.914062 780.601562 L 1448.757812 780.601562 C 1449.808594 787.199219 1450.859375 793.800781 1452.261719 800.398438 C 1453.3125 807 1454.714844 814.199219 1455.765625 821.398438 L 1476.085938 821.398438 C 1475.035156 813 1473.285156 804 1471.53125 794.398438 C 1470.480469 784.800781 1468.378906 774 1466.277344 763.199219 M 845.429688 670.199219 L 845.429688 697.199219 L 872.058594 677.398438 L 872.058594 822 L 891.328125 822 L 891.328125 647.398438 L 875.210938 647.398438 Z M 921.109375 670.199219 C 920.757812 670.800781 920.058594 671.398438 919.007812 671.398438 L 915.503906 671.398438 L 915.503906 663.601562 L 919.007812 663.601562 C 920.058594 663.601562 920.757812 663.601562 921.109375 664.199219 C 921.460938 664.800781 921.808594 666 921.808594 667.199219 C 921.460938 668.398438 921.460938 669.601562 921.109375 670.199219 M 925.3125 667.199219 C 925.3125 664.199219 924.964844 661.800781 923.914062 660.601562 C 922.859375 659.398438 921.460938 658.800781 919.359375 658.800781 L 912 658.800781 L 912 686.398438 L 915.503906 686.398438 L 915.503906 676.199219 L 918.65625 676.199219 L 922.160156 686.398438 L 926.015625 686.398438 L 922.160156 675.601562 C 924.261719 674.398438 925.3125 671.398438 925.3125 667.199219 M 1075.269531 673.800781 L 1108.203125 673.800781 L 1108.203125 822 L 1128.527344 822 L 1128.527344 673.800781 L 1161.460938 673.800781 L 1161.460938 647.398438 L 1075.269531 647.398438 Z M 1189.839844 429.601562 C 1180.730469 409.800781 1170.917969 390.601562 1154.804688 360 C 1141.488281 335.398438 1114.160156 284.398438 1099.796875 258 L 1061.957031 258 L 1060.203125 273.601562 C 1060.203125 273.601562 1061.957031 278.398438 1063.707031 283.800781 C 1065.808594 289.800781 1066.160156 292.800781 1066.160156 296.398438 C 1066.160156 296.398438 1066.160156 516.601562 1066.160156 516.601562 L 1101.546875 516.601562 L 1101.546875 345 C 1108.554688 361.199219 1121.167969 385.800781 1129.578125 401.398438 C 1146.394531 432 1171.621094 480 1191.242188 516.601562 L 1225.226562 516.601562 L 1225.226562 258 L 1190.191406 258 L 1190.191406 429.601562 Z M 934.074219 409.199219 L 1015.707031 409.199219 L 1015.707031 363 L 934.074219 363 L 934.074219 306 L 1023.066406 306 L 1023.066406 258 L 894.480469 258 L 894.480469 516.601562 L 1025.519531 516.601562 L 1025.519531 468.601562 L 933.722656 468.601562 L 933.722656 409.199219 Z M 804.4375 378.601562 C 801.285156 383.398438 797.78125 385.800781 792.175781 385.800781 L 738.570312 385.800781 L 738.570312 307.199219 L 780.964844 307.199219 C 793.578125 307.199219 800.234375 309.601562 804.789062 316.199219 C 809.34375 322.199219 811.445312 331.800781 811.445312 345 C 811.445312 359.398438 809.34375 370.199219 804.4375 378.601562 M 824.410156 420.601562 C 841.226562 405 851.738281 374.398438 851.738281 342 C 851.738281 315 847.183594 294 837.722656 280.800781 C 826.511719 265.199219 811.445312 258.601562 785.519531 258.601562 L 695.472656 258.601562 L 693.722656 274.199219 C 693.722656 274.199219 695.472656 279 697.226562 284.398438 C 700.027344 292.800781 699.679688 295.199219 699.679688 300.601562 L 699.679688 517.199219 L 738.917969 517.199219 L 738.917969 433.800781 L 787.621094 433.800781 L 813.898438 516.601562 L 856.992188 516.601562 Z M 927.066406 687.601562 C 924.964844 690.601562 922.160156 692.398438 918.304688 692.398438 C 914.453125 692.398438 911.300781 690.601562 909.546875 687.601562 C 907.445312 684.601562 906.746094 679.199219 906.746094 672 C 906.746094 668.398438 907.09375 665.398438 907.445312 663 C 907.796875 660.601562 908.496094 658.199219 909.546875 657 C 910.597656 655.199219 911.648438 654 913.050781 653.398438 C 914.453125 652.800781 916.203125 652.199219 918.304688 652.199219 C 920.410156 652.199219 922.160156 652.800781 923.5625 653.398438 C 924.964844 654 926.363281 655.199219 927.066406 657 C 928.117188 658.800781 928.816406 660.601562 929.167969 663 C 929.519531 665.398438 929.867188 668.398438 929.867188 672 C 929.867188 679.199219 929.167969 684.601562 927.066406 687.601562 M 929.519531 653.398438 C 928.46875 651.601562 926.714844 649.800781 924.964844 649.199219 C 923.210938 648 920.757812 648 918.304688 648 C 915.855469 648 913.402344 648.601562 911.648438 649.199219 C 909.898438 650.398438 908.144531 651.601562 907.09375 653.398438 C 906.042969 655.199219 904.992188 658.199219 904.640625 661.199219 C 903.941406 664.199219 903.941406 667.800781 903.941406 672 C 903.941406 676.199219 904.292969 679.800781 904.640625 682.800781 C 905.34375 685.800781 906.042969 688.199219 907.09375 690.601562 C 908.144531 692.398438 909.898438 694.199219 911.648438 694.800781 C 913.402344 696 915.855469 696 918.304688 696 C 920.757812 696 923.210938 695.398438 924.964844 694.800781 C 926.714844 693.601562 928.46875 692.398438 929.519531 690.601562 C 930.570312 688.800781 931.621094 685.800781 931.972656 682.800781 C 932.671875 679.800781 932.671875 676.199219 932.671875 672 C 932.671875 667.800781 932.320312 664.199219 931.972656 661.199219 C 931.621094 658.199219 930.570312 655.199219 929.519531 653.398438 M 1256.058594 745.800781 L 1298.453125 745.800781 L 1298.453125 720.601562 L 1256.058594 720.601562 L 1256.058594 673.800781 L 1309.3125 673.800781 L 1309.3125 647.398438 L 1229.78125 647.398438 L 1228.027344 662.398438 L 1233.636719 666 C 1234.6875 666.601562 1235.386719 667.199219 1235.386719 667.800781 C 1235.738281 668.398438 1235.738281 669.601562 1235.738281 671.398438 L 1235.738281 821.398438 L 1310.714844 821.398438 L 1310.714844 795 L 1256.058594 795 Z M 1612.730469 418.199219 L 1612.730469 258 L 1574.191406 258 L 1574.191406 415.800781 C 1574.191406 433.199219 1572.085938 444 1567.183594 451.800781 C 1560.875 462 1550.363281 466.800781 1535.300781 466.800781 C 1519.882812 466.800781 1509.023438 462 1502.714844 451.800781 C 1497.808594 444 1495.707031 433.199219 1495.707031 415.800781 L 1495.707031 258 L 1451.914062 258 L 1450.160156 273.601562 C 1450.160156 273.601562 1451.914062 278.398438 1453.664062 283.800781 C 1455.765625 289.800781 1456.117188 292.800781 1456.117188 295.800781 C 1456.117188 296.398438 1456.117188 418.199219 1456.117188 418.199219 C 1456.117188 486 1482.746094 520.199219 1534.25 520.199219 L 1535.300781 520.199219 C 1587.152344 520.199219 1612.730469 487.199219 1612.730469 418.199219 M 1695.765625 258 L 1656.527344 258 L 1656.527344 516.601562 L 1781.253906 516.601562 L 1781.253906 468.601562 L 1695.765625 468.601562 Z M 1764.4375 258 L 1764.4375 306 L 1822.597656 306 L 1822.597656 516.601562 L 1861.839844 516.601562 L 1861.839844 306 L 1920 306 L 1920 258 Z M 1344.351562 304.800781 C 1352.757812 337.199219 1362.917969 378.601562 1373.429688 423 L 1315.269531 423 C 1325.78125 379.199219 1336.292969 337.199219 1344.351562 304.800781 M 1304.410156 471.601562 L 1384.992188 471.601562 C 1388.496094 486.601562 1391.648438 501.601562 1394.804688 516.601562 L 1434.042969 516.601562 C 1409.867188 407.398438 1383.941406 310.800781 1368.875 258 L 1319.824219 258 C 1305.109375 310.800781 1279.183594 407.398438 1255.007812 516.601562 L 1294.25 516.601562 C 1297.75 501.601562 1300.90625 486.601562 1304.410156 471.601562 M 692.320312 662.398438 L 697.925781 666 C 698.976562 666.601562 699.679688 667.199219 699.679688 667.800781 C 700.027344 668.398438 700.027344 669.601562 700.027344 671.398438 L 700.027344 822 L 720.351562 822 L 720.351562 753.601562 L 762.746094 753.601562 L 762.746094 727.800781 L 720.351562 727.800781 L 720.351562 674.398438 L 773.957031 674.398438 L 773.957031 648 L 694.074219 648 Z M 338.453125 571.199219 C 306.21875 690 230.890625 933.601562 199.707031 1024.199219 C 196.554688 1033.199219 193.050781 1038 190.597656 1038 C 188.144531 1038 186.746094 1037.398438 186.394531 1036.199219 C 196.90625 1000.800781 223.53125 911.398438 242.453125 829.199219 C 214.074219 739.800781 189.546875 655.800781 166.074219 570.601562 C 161.867188 555 159.765625 547.199219 159.765625 539.398438 C 159.765625 531.601562 161.867188 523.800781 166.421875 508.199219 C 197.957031 389.398438 273.285156 145.800781 304.816406 55.199219 C 307.972656 46.199219 311.472656 41.398438 313.925781 41.398438 C 316.378906 41.398438 317.78125 42 318.132812 43.199219 C 307.621094 78.601562 280.992188 168 262.074219 250.199219 C 290.453125 339.601562 314.976562 423.601562 338.453125 508.800781 C 342.65625 524.398438 344.757812 532.199219 344.757812 540 C 344.757812 547.800781 342.65625 555.601562 338.453125 571.199219 M 438.304688 307.199219 C 405.023438 204.601562 345.808594 34.800781 339.152344 19.800781 C 332.496094 4.800781 328.640625 3.601562 322.6875 3 L 321.636719 3 C 312.875 0.601562 275.035156 0 252.261719 0 C 232.640625 0 191.300781 0.601562 181.488281 2.398438 C 172.378906 4.199219 169.925781 9 164.671875 20.398438 C 157.664062 36.601562 97.402344 210.601562 66.21875 307.199219 C 43.445312 376.800781 7.707031 498 4.554688 511.199219 C 1.402344 522.601562 0 532.199219 0 540 C 0 548.398438 1.402344 558 4.554688 568.800781 C 11.914062 597 34.6875 673.800781 66.21875 772.800781 C 99.152344 875.398438 158.714844 1045.199219 165.023438 1060.199219 C 171.679688 1075.800781 176.234375 1076.398438 182.191406 1077.601562 C 191.300781 1078.800781 230.890625 1080 252.261719 1080 C 275.035156 1080 316.378906 1078.199219 322.335938 1077.601562 C 327.941406 1077 332.847656 1075.800781 339.503906 1060.199219 C 345.460938 1045.800781 409.578125 862.800781 438.304688 772.800781 C 465.984375 686.398438 496.46875 582.601562 499.972656 568.800781 C 503.824219 553.800781 504.527344 546 504.527344 540 C 504.527344 535.199219 503.824219 525 499.972656 511.199219 C 490.859375 478.199219 462.480469 382.199219 438.304688 307.199219 M 1603.621094 742.199219 L 1572.4375 653.398438 C 1571.386719 651 1570.6875 649.199219 1570.335938 648.601562 C 1569.984375 648 1568.933594 647.398438 1567.183594 647.398438 L 1545.109375 647.398438 L 1543.359375 662.398438 L 1548.964844 666 C 1550.015625 666.601562 1550.714844 667.199219 1550.714844 667.800781 C 1551.066406 668.398438 1551.066406 669.601562 1551.066406 671.398438 L 1551.066406 821.398438 L 1569.636719 821.398438 L 1569.636719 699 L 1594.160156 768 C 1594.859375 769.800781 1595.210938 771 1595.5625 772.199219 C 1595.914062 772.800781 1596.261719 774 1596.613281 774 C 1596.964844 774.601562 1597.664062 774.601562 1598.363281 774.601562 C 1599.066406 774.601562 1600.117188 774.601562 1601.519531 774.601562 L 1610.277344 774.601562 L 1637.253906 699 L 1637.253906 822 L 1655.824219 822 L 1655.824219 647.398438 L 1636.554688 647.398438 Z M 1603.621094 742.199219 "/>
</g>
</svg>
